<svg xmlns="http://www.w3.org/2000/svg" viewBox="-2.04846 -2 2434 985.3">
	<path d="M284.9 3.5H222.3V251H284.9V3.5Z M188.8 169.5V86.3C188.8 28.6 142.3 3.5 92.7 3.5H0V107.5L61.7 162.9V61.9H94.7C115.7 61.9 125.8 72 125.8 88.1V165.4C125.8 181.5 116 192.3 94.7 192.3H0V251H92.6C142.3 251.3 188.8 226.5 188.8 169.5Z M612.8 254.5C643.9 254.5 681.3 239.1 701.9 198.9L647.4 173.7C633.8 208 577.8 199.6 577.8 169.9V84.6C577.8 53.8 633 46.8 649.8 77.6L700.8 57C680.9 13 644.2 0 613.8 0C564.2 0 515.2 28.7 515.2 84.6V169.9C515.3 226.2 564.2 254.5 612.8 254.5Z M1371.4 86.3C1371.4 28.6 1324.9 3.5 1275.3 3.5H1182.7V107.5L1244.4 162.9V61.9H1277.4C1298.4 61.9 1308.5 72 1308.5 88.1V165.4C1308.5 181.5 1298.7 192.3 1277.4 192.3H1182.7V251H1275.3C1324.9 251.3 1371.4 226.5 1371.4 169.6V86.3Z M351.7 172.7L312.2 209.8C335.3 239.5 366.7 254.5 396.4 254.5C441.8 254.5 492.2 228.3 494.3 180.4C497.1 119.6 453 104.2 409 96.2C389.8 92 376.8 85 376.1 73.1C377.1 44.4 421.5 43.4 447.4 71L488.3 39.5C462.8 8.4 433.8 0 403.7 0C358.3 0 314.2 25.5 314.2 74.1C314.2 121.3 350.5 146.5 390.4 152.8C410.7 155.6 433.4 163.6 432.7 177.6C431 204.1 376.5 202.7 351.7 172.7Z M821.5 254.5C872.9 254.5 923.9 226.2 923.9 169.6V84.9C923.9 28.3 872.5 0 821.1 0C769.7 0 718.7 28 718.7 84.9V169.5C718.7 226.2 770.1 254.5 821.5 254.5ZM781.3 84.9C781.3 66.7 800.9 56.9 820.4 56.9C840.7 56.9 861.3 65.6 861.3 84.9V169.5C861.3 187.3 841.4 196.4 821.4 196.4C801.5 196.4 781.2 187.7 781.2 169.5V84.9H781.3Z M1020.4 172.3H1031.6L1088.9 250.9H1166.9L1099.4 166C1129.5 156.6 1148 130.7 1148 84.9C1146.6 26.9 1107.1 3.39999 1056.1 3.39999H957.2V251H1020.5V172.3H1020.4ZM1020.4 61.9H1057.1C1096.6 61.9 1096.6 118.5 1057.1 118.5H1020.4V61.9V61.9Z M2221.2 382.7L1911.3 382.6C1903.4 382.6 1896.7 388.4 1895.5 396.2L1880.4 499.2C1879 508.8 1886.5 517.5 1896.2 517.5H1952.8C1958.5 517.5 1962.4 523.3 1960.1 528.5C1953 545.1 1947.9 563 1945 582.4L1916.2 781.4C1897.3 914.6 2008.3 981.3 2129.2 981.3C2255.9 981.3 2380.1 914.7 2399 781.4L2427.8 582.4C2446.4 451.8 2339.3 385.2 2221.2 382.7ZM2280.7 582.4L2251.9 777.3C2245.3 823.4 2193.5 844.8 2145.8 844.8C2101.4 844.8 2057.8 823.4 2063.5 781.5L2092.3 582.5C2098.9 538.9 2150.7 516.7 2198.4 516.7C2246.1 516.6 2287.3 538.8 2280.7 582.4Z M524.6 390.8H410.4C402.4 390.8 395.7 396.7 394.6 404.5L359.6 654.4C359.6 654.6 359.6 654.8 359.6 655.1L361.2 751.7C361.2 753.7 359.9 755.4 358 755.9L325 639.4C325 639.2 324.9 639 324.8 638.9L223 400.5C220.5 394.6 214.7 390.8 208.3 390.8H92.9C84.9 390.8 78.2 396.7 77.1 404.5L0.100013 954.9C-1.19999 964.5 6.20001 973.1 15.9 973.1H130.9C138.9 973.1 145.6 967.2 146.7 959.3L176.8 740.6C176.8 740.4 176.8 740.2 176.8 740L175.2 627.6L178.5 626.8L213 743.4C213 743.6 213.1 743.7 213.2 743.9L308.5 963.5C311 969.3 316.8 973.1 323.1 973.1H447.6C455.6 973.1 462.3 967.2 463.4 959.4L540.4 409C541.7 399.4 534.3 390.8 524.6 390.8Z M774 390.8H659C651 390.8 644.3 396.7 643.2 404.5L566.2 954.9C564.9 964.5 572.3 973.1 582 973.1H697C705 973.1 711.7 967.2 712.8 959.4L789.8 409C791.1 399.4 783.7 390.8 774 390.8Z M1314.1 390H883.2C875.3 390 868.6 395.8 867.4 403.6L852.3 506.6C850.9 516.2 858.4 524.9 868.1 524.9H988.4C998.1 524.9 1005.5 533.4 1004.2 543L947.5 955C946.2 964.6 953.6 973.1 963.3 973.1H1080C1088 973.1 1094.7 967.2 1095.8 959.3L1153.7 538.6C1154.8 530.7 1161.5 524.8 1169.5 524.8H1299C1306.9 524.8 1313.6 519 1314.8 511.2L1329.9 408.2C1331.3 398.6 1323.8 390 1314.1 390Z M1642.4 390.8H1423.5C1415.5 390.8 1408.8 396.7 1407.7 404.5L1330.7 954.9C1329.4 964.5 1336.8 973.1 1346.5 973.1H1463.1C1471.1 973.1 1477.8 967.2 1478.9 959.3L1501.5 794.9C1502 791 1505.4 788 1509.4 788H1524.4C1527.1 788 1529.7 789.4 1531.1 791.7L1642.5 965.7C1645.4 970.3 1650.5 973.1 1655.9 973.1H1800C1812.9 973.1 1820.5 958.6 1813.1 948L1696.2 780.9C1693.4 776.9 1694.8 771.3 1699.2 769.2C1773.8 732.7 1817.2 695.4 1831.4 591.5C1848 455 1762.5 390.8 1642.4 390.8ZM1682.7 593.9C1678.6 627.6 1652.3 661.3 1607 661.3H1539C1529.3 661.3 1521.8 652.7 1523.2 643.1L1537.6 541.8C1538.7 533.9 1545.5 528.1 1553.4 528.1H1625.9C1669.6 528.1 1686.8 558.6 1682.7 593.9Z" stroke="" stroke-width="2" fill="none"/>
</svg>