<?xml version="1.0" encoding="UTF-8"?><svg width="255" height="255" viewBox="0 0 255 255" xmlns="http://www.w3.org/2000/svg"><path d="m188.14 36.333h-129.3c-10.48 0-14.348 3.8677-14.348 14.352v126.51c0 1.187 0.0478 2.289 0.1527 3.31 0.2386 2.289 0.2835 4.506 2.4119 7.031 0.208 0.248 2.3811 1.865 2.3811 1.865 1.1689 0.573 1.967 0.995 3.2853 1.526l63.667 26.674c3.305 1.515 4.687 2.106 7.088 2.058h9e-3 9e-3c2.401 0.048 3.783-0.543 7.089-2.058l63.666-26.674c1.319-0.531 2.117-0.953 3.286-1.526 0 0 2.173-1.617 2.38-1.865 2.129-2.525 2.174-4.742 2.412-7.031 0.105-1.021 0.153-2.123 0.153-3.31v-126.51c0-10.485-3.868-14.352-14.347-14.352z" clip-rule="evenodd" fill="#fff" fill-rule="evenodd"/><path d="m179.48 163.53-0.029 0.292-0.029 0.321-0.059 0.292-0.087 0.291-0.057 0.263-0.087 0.292-0.117 0.263-0.117 0.233-0.115 0.263-0.146 0.233-0.145 0.234-0.174 0.233-0.146 0.234-0.173 0.204-0.205 0.204-0.173 0.175-0.233 0.205-0.203 0.175-0.233 0.175-0.232 0.144-0.232 0.175-0.262 0.146-0.262 0.117-0.26 0.145-0.292 0.117-0.29 0.117-0.29 0.087-0.29 0.088-0.263 0.088-0.29 0.058-0.261 0.058-0.261 0.059-0.292 0.058-0.29 0.029-0.261 0.029-0.292 0.03-0.319 0.029-0.29 0.029h-1.22l-0.291-0.029h-0.319l-0.29-0.029-0.292-0.03-0.319-0.029-0.29-0.058-0.29-0.029-0.292-0.059-0.58-0.116-0.291-0.059-0.291-0.087-0.261-0.059-0.29-0.087-0.291-0.088-0.262-0.117-0.29-0.087-0.261-0.087-0.29-0.117-0.263-0.117-0.261-0.117-0.261-0.144-0.262-0.117-0.261-0.146-0.232-0.145-0.263-0.146-0.231-0.146-0.234-0.146-0.232-0.175-0.231-0.175-0.234-0.175-0.232-0.176-0.204-0.175-0.232-0.204 0.175-0.233 0.203-0.205 0.175-0.233 0.203-0.234 0.175-0.204 0.173-0.233 0.205-0.234 0.173-0.204 0.204-0.233 0.174-0.205 0.204-0.233 0.173-0.234 0.175-0.204 0.203-0.233 0.175-0.234 0.202-0.204 0.175-0.233 0.232 0.175 0.261 0.175 0.234 0.175 0.261 0.175 0.233 0.146 0.261 0.175 0.232 0.146 0.263 0.116 0.231 0.146 0.261 0.117 0.263 0.117 0.261 0.117 0.261 0.087 0.262 0.117 0.29 0.087 0.291 0.088 0.26 0.087 0.292 0.059 0.29 0.058 0.29 0.059 0.32 0.029 0.291 0.058h0.291l0.319 0.029h0.638l0.32-0.029 0.292-0.058 0.26-0.059 0.261-0.058 0.234-0.088 0.203-0.116 0.233-0.175 0.173-0.205 0.117-0.233 0.088-0.263 0.028-0.292v-0.058l-0.028-0.35-0.117-0.292-0.146-0.204-0.203-0.175-0.233-0.175-0.232-0.117-0.261-0.117-0.292-0.117-0.348-0.145-0.203-0.059-0.231-0.058-0.263-0.088-0.261-0.058-0.29-0.088-0.292-0.058-0.319-0.088-0.29-0.058-0.32-0.087-0.29-0.059-0.292-0.087-0.289-0.059-0.291-0.087-0.262-0.088-0.29-0.058-0.261-0.088-0.261-0.087-0.263-0.088-0.319-0.117-0.29-0.117-0.291-0.116-0.291-0.117-0.261-0.146-0.29-0.146-0.234-0.145-0.261-0.146-0.232-0.175-0.233-0.146-0.202-0.176-0.204-0.204-0.203-0.204-0.175-0.205-0.174-0.204-0.146-0.204-0.144-0.234-0.146-0.262-0.117-0.202-0.087-0.234-0.086-0.263-0.087-0.233-0.059-0.292-0.058-0.263-0.029-0.291-0.029-0.292-0.03-0.321v-0.672l0.03-0.291 0.029-0.263 0.029-0.292 0.058-0.262 0.059-0.263 0.087-0.263 0.059-0.262 0.114-0.263 0.117-0.263 0.117-0.262 0.144-0.263 0.146-0.262 0.173-0.234 0.176-0.233 0.202-0.234 0.204-0.204 0.203-0.234 0.234-0.204 0.202-0.146 0.233-0.175 0.232-0.175 0.232-0.146 0.263-0.146 0.261-0.117 0.26-0.145 0.263-0.117 0.29-0.088 0.29-0.116 0.263-0.088 0.232-0.058 0.261-0.059 0.262-0.058 0.29-0.058 0.261-0.059 0.29-0.029 0.292-0.029 0.58-0.058h1.25l0.319 0.029 0.32 0.029h0.29l0.321 0.029 0.29 0.058 0.319 0.03 0.29 0.058 0.263 0.058 0.29 0.059 0.29 0.058 0.261 0.058 0.292 0.088 0.261 0.087 0.261 0.059 0.291 0.117 0.261 0.087 0.522 0.234 0.292 0.116 0.261 0.146 0.232 0.117 0.262 0.146 0.261 0.146 0.232 0.146 0.263 0.175 0.232 0.146 0.233 0.175 0.232 0.175 0.231 0.175-0.173 0.234-0.146 0.233-0.173 0.233-0.175 0.234-0.174 0.262-0.146 0.234-0.175 0.234-0.173 0.233-0.146 0.233-0.174 0.234-0.174 0.233-0.147 0.234-0.173 0.262-0.175 0.234-0.173 0.233-0.146 0.234-0.174 0.233-0.233-0.175-0.261-0.146-0.232-0.146-0.233-0.175-0.261-0.116-0.234-0.147-0.26-0.116-0.232-0.117-0.263-0.117-0.232-0.116-0.26-0.088-0.234-0.117-0.319-0.087-0.29-0.088-0.29-0.087-0.292-0.059-0.29-0.058-0.29-0.059-0.29-0.029-0.292-0.029-0.261-0.029h-0.639l-0.319 0.058-0.292 0.059-0.261 0.058-0.232 0.117-0.204 0.116-0.261 0.234-0.175 0.263-0.115 0.262-0.029 0.292v0.059l0.029 0.379 0.144 0.321 0.117 0.175 0.202 0.204 0.263 0.146 0.232 0.146 0.29 0.117 0.321 0.117 0.348 0.116 0.232 0.059 0.232 0.087 0.263 0.058 0.26 0.088 0.29 0.059 0.322 0.087 0.319 0.087 0.319 0.088 0.319 0.058 0.29 0.088 0.32 0.088 0.292 0.058 0.29 0.087 0.29 0.088 0.261 0.088 0.292 0.087 0.261 0.088 0.26 0.087 0.321 0.115 0.29 0.146 0.29 0.117 0.291 0.146 0.263 0.146 0.261 0.146 0.231 0.145 0.233 0.176 0.232 0.145 0.232 0.205 0.234 0.204 0.202 0.234 0.204 0.204 0.174 0.233 0.175 0.263 0.144 0.233 0.146 0.263 0.117 0.234 0.087 0.262 0.086 0.263 0.058 0.262 0.059 0.292 0.058 0.292 0.029 0.292 0.03 0.321v0.7l-0.03 0.321zm-20.374 5.835h-16.647v-21.241h16.791v4.815h-11.244v3.472h10.111v4.522h-10.111v3.618h11.39v4.814h-0.29zm-21.228 0h-5.316v-12.561l-0.145 0.234-0.174 0.264-0.146 0.234-0.173 0.233-0.146 0.263-0.176 0.234-0.143 0.233-0.147 0.264-0.173 0.234-0.146 0.233-0.175 0.234-0.144 0.264-0.175 0.233-0.144 0.234-0.146 0.262-0.175 0.235-0.145 0.234-0.175 0.263-0.144 0.233-0.175 0.234-0.144 0.264-0.146 0.234-0.175 0.233-0.144 0.263-0.175 0.235-0.144 0.233-0.176 0.234-0.146 0.262-0.144 0.235-0.175 0.234-0.144 0.263-0.175 0.233-0.146 0.233-0.173 0.265-0.146 0.233h-0.115l-0.175-0.262-0.146-0.236-0.174-0.262-0.146-0.234-0.173-0.262-0.146-0.235-0.173-0.263-0.146-0.234-0.175-0.262-0.145-0.234-0.175-0.264-0.144-0.234-0.175-0.262-0.146-0.234-0.173-0.264-0.146-0.233-0.173-0.263-0.175-0.233-0.146-0.265-0.174-0.233-0.146-0.263-0.173-0.233-0.146-0.265-0.173-0.233-0.146-0.263-0.175-0.233-0.145-0.263-0.175-0.235-0.144-0.263-0.175-0.233-0.146-0.263-0.173-0.233-0.146-0.265-0.174-0.233v12.502h-5.52v-21.241h5.957l0.144 0.233 0.146 0.263 0.173 0.231 0.146 0.263 0.146 0.233 0.144 0.263 0.146 0.232 0.174 0.263 0.145 0.233 0.146 0.234 0.144 0.26 0.146 0.234 0.174 0.262 0.146 0.234 0.145 0.261 0.145 0.233 0.175 0.234 0.146 0.261 0.144 0.233 0.146 0.263 0.144 0.233 0.175 0.261 0.146 0.234 0.144 0.262 0.146 0.232 0.144 0.233 0.175 0.263 0.146 0.234 0.144 0.262 0.146 0.232 0.144 0.263 0.176 0.233 0.146 0.261 0.144 0.234 0.146-0.234 0.146-0.261 0.173-0.233 0.146-0.263 0.144-0.232 0.146-0.262 0.173-0.234 0.146-0.263 0.146-0.233 0.144-0.232 0.175-0.262 0.145-0.234 0.146-0.261 0.145-0.233 0.174-0.263 0.145-0.233 0.147-0.261 0.144-0.234 0.146-0.233 0.173-0.261 0.146-0.234 0.146-0.262 0.144-0.234 0.175-0.26 0.145-0.234 0.145-0.233 0.146-0.263 0.173-0.232 0.147-0.263 0.143-0.233 0.147-0.263 0.175-0.231 0.144-0.263 0.146-0.233h5.955v21.241h-0.291zm-33.708-8.753-0.088-0.264-0.115-0.292-0.116-0.263-0.088-0.264-0.115-0.263-0.116-0.292-0.088-0.264-0.117-0.263-0.115-0.262-0.088-0.265-0.117-0.291-0.085-0.263-0.117-0.264-0.117-0.263-0.087-0.263-0.115-0.293-0.117-0.263-0.087-0.262-0.117-0.265-0.115-0.292-0.088-0.264-0.117-0.263-0.114 0.263-0.088 0.264-0.117 0.292-0.116 0.265-0.086 0.262-0.117 0.263-0.117 0.293-0.115 0.263-0.088 0.263-0.116 0.264-0.117 0.263-0.086 0.291-0.116 0.265-0.117 0.262-0.087 0.263-0.116 0.264-0.117 0.292-0.1161 0.263-0.0856 0.264-0.1168 0.263-0.1169 0.292-0.0875 0.264-0.1149 0.263h4.9088l-0.116-0.263zm9.124 8.753h-5.696l-0.115-0.263-0.088-0.263-0.116-0.262-0.117-0.292-0.086-0.261-0.117-0.262-0.116-0.263-0.086-0.263-0.117-0.262-0.117-0.263-0.087-0.263-0.115-0.291-0.117-0.263-0.088-0.263-0.116-0.262h-8.3379l-0.1149 0.262-0.0876 0.263-0.1168 0.263-0.1165 0.291-0.086 0.263-0.1165 0.263-0.1169 0.262-0.0875 0.263-0.1149 0.263-0.1169 0.262-0.0875 0.261-0.1153 0.292-0.1165 0.262-0.0876 0.263-0.1168 0.263h-5.8672l0.1149-0.263 0.1169-0.263 0.1165-0.262 0.1152-0.292 0.0876-0.261 0.1168-0.262 0.1166-0.263 0.1149-0.263 0.1168-0.262 0.1169-0.292 0.1149-0.263 0.1169-0.262 0.0872-0.263 0.1168-0.263 0.1149-0.262 0.1169-0.292 0.1165-0.263 0.1153-0.263 0.1168-0.262 0.1165-0.263 0.0876-0.262 0.1149-0.292 0.1169-0.263 0.1168-0.262 0.1149-0.263 0.1169-0.263 0.1168-0.262 0.1149-0.292 0.0876-0.263 0.1168-0.262 0.1166-0.263 0.1152-0.263 0.1165-0.263 0.1166-0.291 0.1152-0.263 0.1165-0.263 0.0876-0.262 0.1168-0.263 0.1149-0.262 0.1169-0.292 0.1168-0.263 0.1149-0.263 0.1166-0.262 0.1168-0.263 0.0876-0.263 0.1152-0.26 0.1165-0.292 0.1166-0.263 0.1152-0.263 0.1165-0.262 0.1169-0.263 0.1149-0.262 0.0875-0.292 0.1169-0.263 0.1165-0.262 0.1153-0.263 0.1168-0.263 0.1165-0.262 0.1153-0.292 0.1165-0.263 0.0876-0.262 0.1165-0.263 0.1152-0.263 0.1165-0.263 0.1169-0.291 0.1149-0.263 0.1169-0.263 0.1168-0.262 0.0856-0.263 0.1169-0.263 0.1168-0.291 0.1169-0.263 0.1149-0.263 0.1168-0.262 0.1166-0.263 0.1149-0.262 0.0879-0.292 0.1165-0.263 0.1168-0.263 0.115-0.262h5.3749l0.116 0.262 0.117 0.263 0.115 0.263 0.117 0.292 0.087 0.262 0.115 0.263 0.117 0.262 0.234 0.526 0.114 0.291 0.234 0.526 0.086 0.262 0.234 0.526 0.116 0.291 0.115 0.263 0.234 0.526 0.115 0.262 0.087 0.263 0.117 0.292 0.115 0.262 0.117 0.263 0.116 0.263 0.117 0.262 0.115 0.263 0.117 0.292 0.087 0.262 0.115 0.263 0.117 0.262 0.234 0.526 0.114 0.292 0.117 0.26 0.117 0.263 0.086 0.263 0.116 0.262 0.117 0.263 0.115 0.263 0.117 0.292 0.117 0.262 0.117 0.263 0.115 0.262 0.087 0.263 0.117 0.263 0.115 0.291 0.116 0.263 0.234 0.526 0.115 0.262 0.117 0.263 0.087 0.292 0.115 0.262 0.234 0.526 0.115 0.262 0.116 0.263 0.117 0.292 0.117 0.262 0.086 0.263 0.117 0.262 0.116 0.263 0.115 0.263 0.117 0.292 0.117 0.262 0.116 0.263 0.115 0.263 0.088 0.262 0.117 0.263 0.115 0.292 0.116 0.262 0.117 0.263 0.115 0.263 0.117 0.262 0.117 0.261 0.087 0.292 0.115 0.262 0.117 0.263 0.116 0.263h-0.289zm-25.452-2.713-0.2334 0.176-0.2028 0.146-0.2333 0.175-0.2318 0.146-0.2318 0.175-0.2333 0.146-0.2318 0.146-0.2627 0.145-0.261 0.146-0.2611 0.146-0.2623 0.115-0.2611 0.146-0.29 0.117-0.2607 0.117-0.292 0.116-0.2607 0.117-0.2614 0.088-0.2624 0.087-0.261 0.088-0.29 0.087-0.2608 0.088-0.292 0.058-0.261 0.059-0.29 0.058-0.2917 0.058-0.2903 0.029-0.3193 0.03-0.2901 0.029-0.3193 0.029-0.292 0.029-0.3189 0.029h-1.25l-0.29-0.029-0.3193-0.029-0.5801-0.058-0.2919-0.03-0.2901-0.058-0.2903-0.058-0.2607-0.059-0.2917-0.058-0.261-0.087-0.29-0.059-0.2627-0.088-0.2611-0.116-0.261-0.088-0.2897-0.117-0.2627-0.116-0.2611-0.117-0.2607-0.116-0.263-0.146-0.2314-0.145-0.2611-0.146-0.2334-0.146-0.2317-0.145-0.2334-0.176-0.2318-0.175-0.232-0.175-0.2041-0.175-0.2025-0.175-0.2044-0.204-0.2025-0.175-0.2044-0.205-0.2025-0.204-0.1751-0.204-0.1735-0.233-0.1751-0.205-0.1458-0.233-0.1735-0.234-0.1455-0.233-0.1445-0.234-0.1459-0.262-0.1458-0.234-0.1149-0.262-0.1168-0.263-0.1166-0.263-0.1152-0.262-0.0875-0.234-0.1169-0.263-0.0583-0.262-0.0859-0.263-0.0583-0.291-0.0875-0.263-0.0583-0.292-0.0293-0.263-0.0586-0.292-0.0286-0.262-0.0296-0.292-0.0274-0.292-0.0289-0.291v-0.964l0.0289-0.321v-0.291l0.0274-0.292 0.0296-0.321 0.0582-0.29 0.029-0.292 0.0583-0.263 0.0875-0.291 0.0586-0.292 0.0856-0.263 0.0876-0.292 0.0876-0.262 0.1168-0.292 0.1152-0.263 0.1166-0.262 0.1168-0.263 0.1149-0.263 0.1458-0.263 0.1459-0.233 0.1445-0.234 0.1455-0.233 0.1461-0.233 0.1732-0.234 0.1751-0.233 0.1735-0.234 0.1751-0.204 0.2025-0.204 0.1751-0.205 0.2028-0.204 0.2041-0.204 0.2025-0.175 0.2334-0.205 0.2027-0.175 0.2318-0.175 0.2334-0.146 0.2317-0.175 0.2338-0.146 0.2314-0.145 0.261-0.146 0.2627-0.146 0.2607-0.146 0.2611-0.117 0.2623-0.117 0.2904-0.146 0.2318-0.087 0.29-0.088 0.263-0.116 0.2607-0.059 0.2607-0.087 0.2917-0.059 0.261-0.087 0.2901-0.059 0.2903-0.029 0.2917-0.058 0.2903-0.029 0.2897-0.029 0.2903-0.03 0.292-0.029h1.2477l0.3212 0.029 0.3194 0.03h0.29l0.29 0.029 0.3193 0.058 0.2627 0.029 0.29 0.059 0.2904 0.058 0.2623 0.058 0.2607 0.059 0.2614 0.058 0.2627 0.088 0.2607 0.058 0.2318 0.087 0.2627 0.088 0.261 0.117 0.2608 0.116 0.2626 0.117 0.2611 0.146 0.2607 0.117 0.2337 0.146 0.2607 0.146 0.2318 0.145 0.2627 0.147 0.2317 0.174 0.2318 0.147 0.2334 0.175 0.2317 0.175 0.2334 0.204 0.2318 0.175-0.1751 0.234-0.2025 0.204-0.1751 0.233-0.2025 0.234-0.1751 0.233-0.1735 0.204-0.2044 0.234-0.1732 0.233-0.1751 0.205-0.2028 0.233-0.1748 0.234-0.2028 0.233-0.1751 0.204-0.1732 0.234-0.204 0.233-0.1739 0.234-0.204 0.204-0.1735 0.233-0.2334-0.175-0.2318-0.204-0.2334-0.146-0.2317-0.175-0.2318-0.146-0.2334-0.146-0.2321-0.146-0.2607-0.146-0.2334-0.116-0.2317-0.117-0.2334-0.088-0.2611-0.087-0.2607-0.088-0.2627-0.058-0.29-0.059-0.29-0.058-0.2904-0.029-0.3193-0.029-0.3209-0.029h-0.6094l-0.29 0.029-0.2627 0.029-0.29 0.058-0.261 0.059-0.2627 0.087-0.2607 0.088-0.2611 0.117-0.261 0.116-0.2334 0.146-0.2315 0.146-0.2337 0.146-0.2024 0.175-0.2044 0.175-0.2025 0.175-0.1751 0.204-0.2025 0.205-0.1751 0.233-0.1445 0.205-0.1459 0.233-0.1438 0.263-0.1462 0.233-0.1165 0.263-0.0876 0.262-0.1152 0.263-0.0876 0.292-0.0582 0.29-0.0583 0.262-0.0586 0.322-0.029 0.291-0.0273 0.292v0.672l0.0273 0.291 0.029 0.263 0.0293 0.292 0.0583 0.262 0.0586 0.263 0.0582 0.263 0.0876 0.262 0.0859 0.234 0.1169 0.291 0.1165 0.263 0.1442 0.263 0.1458 0.233 0.1459 0.234 0.1735 0.233 0.1751 0.205 0.2024 0.204 0.1755 0.204 0.2021 0.175 0.2337 0.175 0.2318 0.175 0.2314 0.146 0.2334 0.146 0.2614 0.117 0.2607 0.117 0.2624 0.116 0.2903 0.088 0.29 0.087 0.292 0.059 0.29 0.058 0.29 0.029 0.3194 0.03h0.6676l0.3212-0.03 0.3194-0.029 0.29-0.029 0.29-0.059 0.292-0.058 0.29-0.087 0.2607-0.059 0.2614-0.116 0.2334-0.117 0.2607-0.117 0.2041-0.116 0.2321-0.147v-2.655h-4.242v-4.259h9.5874v9.483l-0.2025 0.174z" fill="#3C3935"/>
 <path d="m78.501 100.06h12.591v-9.7401h-12.591v-19.884h13.093v-9.7397h-23.785v70.292h23.984v-9.74h-13.292v-21.189z" fill="#3C3935"/>
 <path d="m168.69 102.17v15.867c0 2.812-1.299 4.116-3.996 4.116h-2c-2.798 0-4.098-1.304-4.098-4.116v-44.386c0-2.8117 1.3-4.1163 4.098-4.1163h1.799c2.698 0 3.998 1.3046 3.998 4.1163v13.759h10.492v-14.361c0-8.7355-4.197-12.953-12.89-12.953h-5.198c-8.693 0-12.991 4.3175-12.991 13.055v45.389c0 8.737 4.298 13.055 12.991 13.055h5.297c8.695 0 12.991-4.318 12.991-13.055v-16.368h-10.493z" fill="#3C3935"/>
 <path d="m131.56 130.99h10.694v-70.293h-10.694v70.293z" fill="#3C3935"/>
 <path d="m116.04 91.926c0 2.812-1.298 4.1182-3.996 4.1182h-4.398v-25.908h4.398c2.698 0 3.996 1.3049 3.996 4.1163v17.674zm-2.298-31.23h-16.789v70.292h10.693v-25.507h6.096c8.694 0 12.991-4.317 12.991-13.052v-18.678c0-8.7371-4.297-13.054-12.991-13.054" fill="#3C3935"/>
 <path d="m93.035 194.55h61.212l-31.244 10.303-29.968-10.303z" clip-rule="evenodd" fill="#3C3935" fill-rule="evenodd"/>
</svg>
