<?xml version="1.0" encoding="UTF-8"?><svg width="29" height="22" viewBox="0 0 29 22" xmlns="http://www.w3.org/2000/svg"><g fill-rule="evenodd"><rect width="29" height="22" rx="3" fill="#202225" fill-opacity=".8"/><polygon points="13.292 6.111 15.708 6.111 15.708 15.889 13.292 15.889" fill="#FFF"/><path d="m9.6667 6.1111h-4.8333c-0.87 0-1.2083 0.40741-1.2083 1.2222v7.3333c0 0.81481 0.33833 1.2222 1.2083 1.2222h4.8333c0.87 0 1.2083-0.40741 1.2083-1.2222v-4.8889h-3.625v2.4444h1.2083v1.2222h-2.4167v-4.8889h4.8333v-1.2222c0-0.81481-0.33833-1.2222-1.2083-1.2222z" fill="#FFF"/><polygon points="25.375 8.556 25.375 6.111 18.125 6.111 18.125 15.889 20.542 15.889 20.542 12.222 24.167 12.222 24.167 9.778 20.542 9.778 20.542 8.556" fill="#FFF"/></g></svg>