<svg fill="none" height="24" viewBox="0 0 24 24" width="24" xmlns="http://www.w3.org/2000/svg"><path clip-rule="evenodd" d="m23.6687 17.1554c-.4641.5856-1.6012 1.0033-1.6012 1.0033l-8.459 3.0384v-2.2408l6.2252-2.218c.7065-.2532.8149-.611.2407-.7988-.5731-.1883-1.6109-.1343-2.3179.1198l-4.148 1.461v-2.3255l.2391-.081s1.1986-.4242 2.8841-.6109c1.6854-.1856 3.7491.0254 5.3692.6395 1.8258.5769 2.0314 1.4275 1.5678 2.013zm-9.255-3.8155v-5.73031c0-.67298-.1241-1.29254-.7555-1.46793-.4836-.15489-.7836.29412-.7836.96656v14.35008l-3.87007-1.2283v-17.11c1.64547.30545 4.04277 1.02754 5.33147 1.46199 3.2775 1.12523 4.3887 2.52569 4.3887 5.68121 0 3.0756-1.8986 4.2413-4.311 3.0767zm-12.51026 5.3822c-1.8743097-.5278-2.186244-1.6277-1.331932-2.2612.789552-.5851 2.132272-1.0254 2.132272-1.0254l5.54898-1.9731v2.2494l-3.99309 1.4291c-.70536.2531-.81383.6114-.24069.7992.57368.1878 1.61202.1344 2.31846-.1192l1.91532-.6952v2.0125c-.12143.0216-.25689.0432-.38209.0642-1.91586.313-3.95639.1824-5.96723-.4803z" fill="#fff" fill-rule="evenodd"/></svg>