<svg width="1304" height="332" viewBox="0 0 1304 332" fill="none" xmlns="http://www.w3.org/2000/svg">
<g clip-path="url(#clip0_1762:128545)">
<g clip-path="url(#clip1_1762:128545)">
<path d="M1304.23 0H-1V333H1304.23V0Z" fill="url(#paint0_linear_1762:128545)"/>
<path d="M1303 0H-1V332H1303V0Z" fill="#7289da"/>
<path d="M1303.45 332.43H872.45C930.52 291.98 987.11 300.92 987.11 300.92C987.11 300.92 1034.77 238.8 1081.43 274.88C1101.5 128.75 1172.54 146.62 1172.54 146.62C1221.17 65.5601 1276.61 81.4201 1303.45 103.89V332.43Z" fill="#687dc6"/>
<path d="M-0.209961 332.43H436.47C359.65 227.65 295.05 283.67 295.05 283.67C295.05 283.67 280.03 184.91 233.37 220.99C196.16 77.55 140.15 105.33 140.15 105.33C132.82 12.92 26.63 5.68998 -0.209961 28.16V332.43Z" fill="#687dc6"/>
<path d="M247.4 28.14C244.55 26.3 242.62 23.33 242.12 19.97L241.27 14.26C241.23 13.98 240.99 13.77 240.7 13.77C240.42 13.77 240.17 13.98 240.13 14.26L239.28 19.97C238.78 23.33 236.85 26.3 234 28.14L233.26 28.62C233.1 28.72 233 28.9 233 29.1V29.14C233 29.34 233.1 29.52 233.26 29.62L234 30.1C236.85 31.94 238.78 34.91 239.28 38.27L240.13 43.98C240.17 44.26 240.41 44.47 240.7 44.47C240.98 44.47 241.23 44.26 241.27 43.98L242.12 38.27C242.62 34.91 244.55 31.94 247.4 30.1L248.14 29.62C248.3 29.51 248.4 29.33 248.4 29.14V29.1C248.4 28.9 248.3 28.72 248.14 28.62L247.4 28.14Z" fill="#8CD9FF"/>
<path d="M310.58 91.32C307.73 89.48 305.8 86.51 305.3 83.15L304.45 77.44C304.41 77.16 304.17 76.95 303.88 76.95C303.6 76.95 303.35 77.16 303.31 77.44L302.46 83.15C301.96 86.51 300.03 89.48 297.18 91.32L296.44 91.8C296.28 91.91 296.18 92.09 296.18 92.28V92.32C296.18 92.52 296.28 92.7 296.44 92.8L297.18 93.28C300.03 95.12 301.96 98.09 302.46 101.45L303.31 107.16C303.35 107.44 303.59 107.65 303.88 107.65C304.16 107.65 304.41 107.44 304.45 107.16L305.3 101.45C305.8 98.09 307.73 95.12 310.58 93.28L311.32 92.8C311.48 92.69 311.58 92.51 311.58 92.32V92.28C311.58 92.08 311.48 91.9 311.32 91.8L310.58 91.32Z" fill="white"/>
<path d="M886.23 88.69C883.96 87.23 882.43 84.86 882.04 82.2L881.36 77.66C881.33 77.44 881.13 77.27 880.91 77.27C880.68 77.27 880.49 77.44 880.46 77.66L879.78 82.2C879.38 84.87 877.85 87.23 875.59 88.69L875 89.07C874.87 89.15 874.79 89.3 874.79 89.45V89.48C874.79 89.64 874.87 89.78 875 89.86L875.59 90.24C877.86 91.7 879.39 94.07 879.78 96.73L880.46 101.27C880.49 101.49 880.69 101.66 880.91 101.66C881.14 101.66 881.33 101.49 881.36 101.27L882.04 96.73C882.44 94.06 883.97 91.7 886.23 90.24L886.82 89.86C886.95 89.78 887.03 89.63 887.03 89.48V89.45C887.03 89.29 886.95 89.15 886.82 89.07L886.23 88.69Z" fill="white"/>
<path d="M1258.42 87.02C1255.57 85.18 1253.64 82.21 1253.14 78.85L1252.29 73.14C1252.25 72.86 1252.01 72.65 1251.72 72.65C1251.44 72.65 1251.19 72.86 1251.15 73.14L1250.3 78.85C1249.8 82.21 1247.87 85.18 1245.02 87.02L1244.28 87.5C1244.12 87.61 1244.02 87.79 1244.02 87.98V88.02C1244.02 88.22 1244.12 88.4 1244.28 88.5L1245.02 88.98C1247.87 90.82 1249.8 93.79 1250.3 97.15L1251.15 102.86C1251.19 103.14 1251.43 103.35 1251.72 103.35C1252 103.35 1252.25 103.14 1252.29 102.86L1253.14 97.15C1253.64 93.79 1255.57 90.82 1258.42 88.98L1259.16 88.5C1259.32 88.39 1259.42 88.21 1259.42 88.02V87.98C1259.42 87.78 1259.32 87.6 1259.16 87.5L1258.42 87.02Z" fill="url(#paint1_linear_1762:128545)"/>
<path d="M853.29 52.88C850.35 50.99 848.37 47.92 847.85 44.46L846.97 38.58C846.93 38.29 846.68 38.08 846.38 38.08C846.09 38.08 845.84 38.29 845.79 38.58L844.91 44.46C844.39 47.92 842.41 50.98 839.47 52.88L838.71 53.37C838.54 53.48 838.44 53.67 838.44 53.87V53.91C838.44 54.11 838.54 54.3 838.71 54.41L839.47 54.9C842.41 56.79 844.39 59.86 844.91 63.32L845.79 69.2C845.83 69.49 846.08 69.7 846.38 69.7C846.67 69.7 846.92 69.49 846.97 69.2L847.85 63.32C848.37 59.86 850.35 56.8 853.29 54.9L854.05 54.41C854.22 54.3 854.32 54.11 854.32 53.91V53.87C854.32 53.67 854.22 53.48 854.05 53.37L853.29 52.88Z" fill="#FFE75C"/>
<path d="M1046.61 254.45C1042.91 252.07 1040.42 248.21 1039.77 243.86L1038.66 236.46C1038.61 236.1 1038.29 235.83 1037.92 235.83C1037.55 235.83 1037.24 236.1 1037.18 236.46L1036.07 243.86C1035.42 248.21 1032.93 252.07 1029.23 254.45L1028.27 255.07C1028.06 255.21 1027.93 255.44 1027.93 255.7V255.75C1027.93 256 1028.06 256.24 1028.27 256.38L1029.23 257C1032.93 259.38 1035.42 263.24 1036.07 267.59L1037.18 274.99C1037.23 275.35 1037.55 275.62 1037.92 275.62C1038.29 275.62 1038.6 275.35 1038.66 274.99L1039.77 267.59C1040.42 263.24 1042.91 259.38 1046.61 257L1047.57 256.38C1047.78 256.24 1047.91 256.01 1047.91 255.75V255.7C1047.91 255.45 1047.78 255.21 1047.57 255.07L1046.61 254.45Z" fill="#FF78B9"/>
<path d="M380.42 306.48C377.57 304.64 375.64 301.67 375.14 298.31L374.29 292.6C374.25 292.32 374.01 292.11 373.72 292.11C373.44 292.11 373.19 292.32 373.15 292.6L372.3 298.31C371.8 301.67 369.87 304.64 367.02 306.48L366.28 306.96C366.12 307.07 366.02 307.25 366.02 307.44V307.48C366.02 307.68 366.12 307.86 366.28 307.96L367.02 308.44C369.87 310.28 371.8 313.25 372.3 316.61L373.15 322.32C373.19 322.6 373.43 322.81 373.72 322.81C374 322.81 374.25 322.6 374.29 322.32L375.14 316.61C375.64 313.25 377.57 310.28 380.42 308.44L381.16 307.96C381.32 307.85 381.42 307.67 381.42 307.48V307.44C381.42 307.24 381.32 307.06 381.16 306.96L380.42 306.48Z" fill="white"/>
<path d="M228.22 150.77C226.53 149.68 225.39 147.92 225.09 145.93L224.58 142.55C224.56 142.38 224.41 142.26 224.24 142.26C224.07 142.26 223.93 142.38 223.9 142.55L223.39 145.93C223.09 147.92 221.95 149.68 220.26 150.77L219.82 151.05C219.72 151.11 219.66 151.22 219.66 151.34V151.36C219.66 151.48 219.72 151.58 219.82 151.65L220.26 151.93C221.95 153.02 223.09 154.78 223.39 156.77L223.9 160.15C223.92 160.32 224.07 160.44 224.24 160.44C224.41 160.44 224.55 160.32 224.58 160.15L225.09 156.77C225.39 154.78 226.53 153.02 228.22 151.93L228.66 151.65C228.76 151.59 228.82 151.48 228.82 151.36V151.34C228.82 151.22 228.76 151.12 228.66 151.05L228.22 150.77Z" fill="#91FFAD"/>
<path d="M22.02 304.46C20.33 303.37 19.19 301.61 18.89 299.62L18.38 296.24C18.36 296.07 18.21 295.95 18.04 295.95C17.87 295.95 17.73 296.07 17.7 296.24L17.19 299.62C16.89 301.61 15.75 303.37 14.06 304.46L13.62 304.74C13.52 304.8 13.46 304.91 13.46 305.03V305.05C13.46 305.17 13.52 305.27 13.62 305.34L14.06 305.62C15.75 306.71 16.89 308.47 17.19 310.46L17.7 313.84C17.72 314.01 17.87 314.13 18.04 314.13C18.21 314.13 18.35 314.01 18.38 313.84L18.89 310.46C19.19 308.47 20.33 306.71 22.02 305.62L22.46 305.34C22.56 305.28 22.62 305.17 22.62 305.05V305.03C22.62 304.91 22.56 304.81 22.46 304.74L22.02 304.46Z" fill="#FFD635"/>
<path d="M262.21 209.22C260.52 208.13 259.38 206.37 259.08 204.38L258.57 201C258.55 200.83 258.4 200.71 258.23 200.71C258.06 200.71 257.92 200.83 257.89 201L257.38 204.38C257.08 206.37 255.94 208.13 254.25 209.22L253.81 209.5C253.71 209.56 253.65 209.67 253.65 209.79V209.81C253.65 209.93 253.71 210.03 253.81 210.1L254.25 210.38C255.94 211.47 257.08 213.23 257.38 215.22L257.89 218.6C257.91 218.77 258.06 218.89 258.23 218.89C258.4 218.89 258.54 218.77 258.57 218.6L259.08 215.22C259.38 213.23 260.52 211.47 262.21 210.38L262.65 210.1C262.75 210.04 262.81 209.93 262.81 209.81V209.79C262.81 209.67 262.75 209.57 262.65 209.5L262.21 209.22Z" fill="#3442D9"/>
<path d="M603.23 41.26C600.85 39.72 599.24 37.24 598.82 34.43L598.11 29.66C598.07 29.42 597.87 29.25 597.64 29.25C597.4 29.25 597.2 29.42 597.17 29.66L596.46 34.43C596.04 37.24 594.43 39.72 592.05 41.26L591.43 41.66C591.29 41.75 591.21 41.9 591.21 42.06V42.09C591.21 42.25 591.29 42.41 591.43 42.49L592.05 42.89C594.43 44.43 596.04 46.91 596.46 49.72L597.17 54.49C597.21 54.73 597.41 54.9 597.64 54.9C597.88 54.9 598.08 54.73 598.11 54.49L598.82 49.72C599.24 46.91 600.85 44.43 603.23 42.89L603.85 42.49C603.99 42.4 604.07 42.25 604.07 42.09V42.06C604.07 41.9 603.99 41.74 603.85 41.66L603.23 41.26Z" fill="#FF78B9"/>
<path d="M574.13 70.74C572.54 69.72 571.47 68.06 571.19 66.19L570.71 63.01C570.69 62.85 570.55 62.74 570.39 62.74C570.23 62.74 570.1 62.86 570.07 63.01L569.59 66.19C569.31 68.06 568.24 69.72 566.65 70.74L566.24 71.01C566.15 71.07 566.09 71.17 566.09 71.28V71.3C566.09 71.41 566.15 71.51 566.24 71.57L566.65 71.84C568.24 72.86 569.31 74.52 569.59 76.39L570.07 79.57C570.09 79.73 570.23 79.84 570.39 79.84C570.55 79.84 570.68 79.72 570.71 79.57L571.19 76.39C571.47 74.52 572.54 72.86 574.13 71.84L574.54 71.57C574.63 71.51 574.69 71.41 574.69 71.3V71.28C574.69 71.17 574.63 71.07 574.54 71.01L574.13 70.74Z" fill="white"/>
<path d="M726.26 115.66C723.88 114.12 722.27 111.64 721.85 108.83L721.14 104.06C721.1 103.82 720.9 103.65 720.67 103.65C720.43 103.65 720.23 103.82 720.2 104.06L719.49 108.83C719.07 111.64 717.46 114.12 715.08 115.66L714.46 116.06C714.32 116.15 714.24 116.3 714.24 116.46V116.49C714.24 116.65 714.32 116.81 714.46 116.89L715.08 117.29C717.46 118.83 719.07 121.31 719.49 124.12L720.2 128.89C720.24 129.13 720.44 129.3 720.67 129.3C720.91 129.3 721.11 129.13 721.14 128.89L721.85 124.12C722.27 121.31 723.88 118.83 726.26 117.29L726.88 116.89C727.02 116.8 727.1 116.65 727.1 116.49V116.46C727.1 116.3 727.02 116.14 726.88 116.06L726.26 115.66Z" fill="#91FFAD"/>
<path d="M875.9 278.95C873.13 277.17 871.27 274.28 870.78 271.03L869.95 265.49C869.91 265.22 869.67 265.02 869.4 265.02C869.12 265.02 868.89 265.22 868.85 265.49L868.02 271.03C867.53 274.28 865.67 277.17 862.9 278.95L862.18 279.41C862.02 279.51 861.92 279.69 861.92 279.88V279.91C861.92 280.1 862.02 280.28 862.18 280.38L862.9 280.84C865.67 282.62 867.53 285.51 868.02 288.76L868.85 294.3C868.89 294.57 869.13 294.77 869.4 294.77C869.68 294.77 869.91 294.57 869.95 294.3L870.78 288.76C871.27 285.51 873.13 282.62 875.9 280.84L876.62 280.38C876.78 280.28 876.88 280.1 876.88 279.91V279.88C876.88 279.69 876.78 279.51 876.62 279.41L875.9 278.95Z" fill="#EB459F"/>
<path d="M1015.26 273.78C1013.43 272.6 1012.2 270.69 1011.88 268.54L1011.33 264.88C1011.3 264.7 1011.15 264.57 1010.97 264.57C1010.79 264.57 1010.63 264.7 1010.61 264.88L1010.06 268.54C1009.74 270.69 1008.51 272.6 1006.68 273.78L1006.21 274.09C1006.1 274.16 1006.04 274.27 1006.04 274.4V274.42C1006.04 274.55 1006.1 274.66 1006.21 274.73L1006.68 275.04C1008.51 276.22 1009.74 278.13 1010.06 280.28L1010.61 283.94C1010.64 284.12 1010.79 284.25 1010.97 284.25C1011.15 284.25 1011.31 284.12 1011.33 283.94L1011.88 280.28C1012.2 278.13 1013.43 276.22 1015.26 275.04L1015.73 274.73C1015.84 274.66 1015.9 274.55 1015.9 274.42V274.4C1015.9 274.27 1015.84 274.16 1015.73 274.09L1015.26 273.78Z" fill="white"/>
</g>
</g>
<defs>
<linearGradient id="paint0_linear_1762:128545" x1="651.613" y1="22.1549" x2="651.613" y2="382.633" gradientUnits="userSpaceOnUse">
<stop stop-color="#4E1BF5"/>
<stop offset="0.58" stop-color="#5E4EEE"/>
<stop offset="0.92" stop-color="#6668EB"/>
</linearGradient>
<linearGradient id="paint1_linear_1762:128545" x1="1249.49" y1="104.864" x2="1252" y2="85.86" gradientUnits="userSpaceOnUse">
<stop stop-color="#66BCFF"/>
<stop offset="1" stop-color="#8CD9FF"/>
</linearGradient>
<clipPath id="clip0_1762:128545">
<rect width="1304" height="332" fill="white"/>
</clipPath>
<clipPath id="clip1_1762:128545">
<rect width="1305.23" height="333" fill="white" transform="translate(-1)"/>
</clipPath>
</defs>
</svg>
