<svg fill="none" height="24" viewBox="0 0 24 24" width="24" xmlns="http://www.w3.org/2000/svg"><path d="m12 2c-5.52285 0-10 4.47715-10 10 0 5.5228 4.47715 10 10 10 5.5228 0 10-4.4772 10-10 0-2.65216-1.0536-5.1957-2.9289-7.07107-1.8754-1.87536-4.4189-2.92893-7.0711-2.92893zm4.5625 14.4375c-.1834.2786-.548.3732-.8437.2187-2.3438-1.4374-5.3126-1.75-8.7813-.9687-.21771.0502-.44568-.0195-.59805-.1829-.15236-.1634-.20597-.3957-.14062-.6094.06534-.2136.23971-.3762.45742-.4264 3.81255-.875 7.06255-.5 9.71875 1.125.1399.0843.2391.2222.2745.3817.0355.1594.004.3264-.087.462zm1.25-2.75c-.1072.1747-.2797.2994-.4792.3463s-.4095.0123-.5833-.0963c-2.6875-1.6563-6.78125-2.125-9.96875-1.1563-.26795.0782-.55724.0075-.75889-.1855-.20166-.193-.28505-.4789-.21875-.75.06629-.2711.27219-.4863.54014-.5645 3.625-1.0937 8.15625-.5624 11.21875 1.3438.3509.2325.4604.6979.25 1.0625zm.0937-2.8125c-3.2187-1.90625-8.5312-2.09375-11.62495-1.15625-.46434.07409-.91173-.20725-1.04612-.65785-.13439-.45059.0858-.93104.51487-1.1234 3.53125-1.0625 9.4062-.875 13.125 1.34375.2143.12584.3684.33311.4273.57452.0589.24143.0175.49633-.1148.70673-.2821.4197-.8376.5552-1.2813.3125z" fill="#fff"/></svg>