<svg fill="none" height="24" viewBox="0 0 24 24" width="24" xmlns="http://www.w3.org/2000/svg"><path d="m12.0041 2.00001c5.1722.00894 9.4865 3.95037 9.9546 9.09439.4681 5.1439-3.064 9.7975-8.1499 10.7373-5.08591.9399-10.05166-2.1432-11.45787-7.1138l3.85501 1.5937c.31386 1.4062 1.63036 2.3566 3.06594 2.2132 1.43562-.1433 2.53752-1.3352 2.56632-2.7757v-.125l3.417-2.4373h.0939c1.533.0076 2.9193-.9088 3.5113-2.3211.5919-1.41221.2726-3.04155-.8087-4.1268s-2.7113-1.41219-4.1284-.82808c-1.4171.58412-2.3416 1.96398-2.3416 3.49495v.0625l-2.3969 3.46853h-.15958c-.57089-.002-1.12838.1727-1.59582.5l-5.39138-2.2186c.3932-5.20443 4.73977-9.2248 9.96608-9.21819zm-3.69856 15.18649-1.22034-.5c.21411.4749.60791.8457 1.09517 1.0312 1.08612.4417 2.32553-.0747 2.77553-1.1561.2222-.5189.2222-1.1061 0-1.6249-.4425-1.0619-1.64512-1.5859-2.72546-1.1875l1.28604.5312c.38494.1536.69162.4557.85062.838s.1569.8124-.0058 1.1932c-.3461.7951-1.25554 1.1798-2.06828.8749zm5.15356-7.78073c-.0001.50326.2024.98543.562 1.33803s.846.5461 1.3499.5368c1.0425.0002 1.893-.8338 1.9118-1.87483 0-1.05445-.856-1.90925-1.9118-1.90925-1.0559 0-1.9119.8548-1.9119 1.90925zm4.3807.03125c.0152 1.02978-.5944 1.96668-1.5429 2.37108s-2.0477.1961-2.7819-.5272c-.7343-.7233-.9578-1.81804-.5659-2.77069.392-.95265 1.3217-1.57418 2.353-1.57303.6716-.01525 1.3207.24209 1.799.71322s.7448 1.11577.7387 1.78662z" fill="#fff"/></svg>