<svg fill="none" height="24" viewBox="0 0 24 24" width="24" xmlns="http://www.w3.org/2000/svg" xmlns:xlink="http://www.w3.org/1999/xlink"><clipPath id="a"><path d="m0 0h24.000075009v24.000075009h-24.000075009z"/></clipPath><g clip-path="url(#a)"><path d="m11.0044 21.9585c-1.53959-.1466-3.09923-.6996-4.44082-1.5746-1.12356-.7329-1.3772-1.0327-1.3772-1.6346 0-1.2059 1.32825-3.3201 3.59762-5.7275 1.2904-1.3681 3.0859-2.9715 3.2795-2.9293.3782.0844 3.3973 3.0292 4.5276 4.4128 1.7888 2.1942 2.612 3.9886 2.1937 4.7882-.3182.6085-2.2872 1.7966-3.7333 2.2519-1.1926.3775-2.7589.5374-4.0471.4131zm-7.33315-4.4617c-.93222-1.4302-1.40389-2.8405-1.63306-4.877-.07564-.6729-.04894-1.0571.17132-2.4385.27366-1.72113 1.2526-3.71101 2.43178-4.93691.50282-.5219.54732-.53523 1.15916-.32869.7431.25096 1.53516.79729 2.76551 1.90993l.71863.64849-.39157.48192c-1.82217 2.23416-3.74223 5.40106-4.46532 7.35986-.3938 1.0638-.55176 2.1343-.38267 2.5784.11346.2998.0089.1888-.37378-.3975zm16.37505.2421c.0912-.4487-.0245-1.2748-.2981-2.1076-.5896-1.8033-2.5675-5.1613-4.383-7.44207l-.5718-.71734.6185-.56853c.8076-.74176 1.3683-1.18593 1.9734-1.56126.4784-.29759 1.1592-.55965 1.4529-.55965.1802 0 .8165.65959 1.3305 1.38137.7965 1.11486 1.3816 2.46958 1.6775 3.87758.1913.9106.2069 2.8582.0312 3.7643-.1447.744-.4517 1.7101-.7498 2.3675-.2247.4908-.781 1.4435-1.0257 1.7544-.1246.1555-.1246.1555-.0556-.1887zm-8.8772-13.29846c-.8388-.4264-2.13147-.88167-2.84565-1.00604-.25141-.0422-.67636-.06663-.95002-.0533-.58959.02887-.56289 0 .38268-.44639.78538-.37088 1.44171-.58853 2.33169-.77508 1.0012-.21098 2.8812-.2132 3.8668-.00444 1.0635.22431 2.3161.69068 3.0214 1.12375l.2091.12881-.4806-.02443c-.9567-.04886-2.3494.33757-3.8468 1.066-.4516.21987-.8432.39531-.8721.38865-.0267-.00444-.396-.18433-.8165-.39753z" fill="#fff"/></g></svg>